<svg xmlns="http://www.w3.org/2000/svg" xmlns:xlink="http://www.w3.org/1999/xlink" viewBox="0 0 64 64"><defs><linearGradient id="b" x1="24" x2="53.85" y1="50.5" y2="50.5" gradientUnits="userSpaceOnUse"><stop offset="0" stop-color="#efad7b"/><stop offset="1" stop-color="#ed7a5f"/></linearGradient><linearGradient id="a" x1="5" x2="31" y1="38.9" y2="38.9" gradientUnits="userSpaceOnUse"><stop offset="0" stop-color="#23c8de"/><stop offset="1" stop-color="#117bc9"/></linearGradient><linearGradient id="c" x1="25.64" x2="59" y1="26.89" y2="26.89" xlink:href="#a"/><linearGradient id="d" x1="7.81" x2="42" y1="23.79" y2="23.79" xlink:href="#b"/></defs><path fill="url(#b)" d="M53.85,47.85A27,27,0,0,1,24,57.8V56l3-3V49l4-4V42l4,4h5l2-2h8Z"/><path fill="url(#a)" d="M27.44,39,31,42.57V45l-4,4v4l-3,3v1.8A27,27,0,0,1,7.81,20h4L16,24.2v7.91L22.86,39Z"/><path fill="url(#c)" d="M59,32a26.82,26.82,0,0,1-5.15,15.85L50,44H42l-2,2H35l-4-4V37.51l-5.36-5.25L31,27h7.07L42,23.15V20.59L38.33,17H34l-4-4V9h6l3.06-3.06A27,27,0,0,1,59,32Z"/><path fill="url(#d)" d="M42,20.59v2.56L38.07,27H31l-5.36,5.26L31,37.51v5.06L27.44,39H22.86L16,32.11V24.2L11.8,20h-4A27,27,0,0,1,32,5a26.55,26.55,0,0,1,7.06.94L36,9H30v4l4,4h4.33Z"/></svg>